<?xml version="1.0" standalone="no"?>
<!DOCTYPE svg PUBLIC "-//W3C//DTD SVG 20010904//EN"
 "http://www.w3.org/TR/2001/REC-SVG-20010904/DTD/svg10.dtd">
<svg version="1.0" xmlns="http://www.w3.org/2000/svg"
 width="500.000000pt" height="500.000000pt" viewBox="0 0 500.000000 500.000000"
 preserveAspectRatio="xMidYMid meet">

<g transform="translate(0.000000,500.000000) scale(0.100000,-0.100000)"
fill="#000000" stroke="none">
<path d="M2350 4944 c-371 -31 -651 -109 -975 -271 -449 -225 -823 -601 -1051
-1055 -132 -263 -202 -487 -250 -798 -24 -158 -24 -481 0 -640 46 -298 116
-521 251 -791 229 -457 604 -833 1056 -1059 374 -188 720 -272 1119 -272 470
-1 925 131 1320 381 698 443 1129 1227 1131 2057 1 463 -128 913 -379 1318
-57 92 -208 285 -304 388 -102 109 -312 280 -443 360 -328 201 -599 301 -965
359 -119 18 -410 32 -510 23z"/>
</g>
</svg>
